<mxfile host="app.diagrams.net" modified="2023-05-16T15:37:00.260Z" agent="Mozilla/5.0 (X11; Linux x86_64) AppleWebKit/537.36 (KHTML, like Gecko) Chrome/91.0.4472.114 Safari/537.36" etag="gIKkvB166dONIGHobCHA" version="21.3.2" type="github">
  <diagram name="Página-1" id="AwrBdzoYUAu0STF_QJqE">
    <mxGraphModel dx="2181" dy="1824" grid="1" gridSize="10" guides="1" tooltips="1" connect="1" arrows="1" fold="1" page="1" pageScale="1" pageWidth="827" pageHeight="1169" math="0" shadow="0">
      <root>
        <mxCell id="0" />
        <mxCell id="1" parent="0" />
        <mxCell id="6VpIvGpCJ8_AKMY0z0iE-1" value="Usuarios" style="swimlane;fontStyle=1;align=center;verticalAlign=top;childLayout=stackLayout;horizontal=1;startSize=26;horizontalStack=0;resizeParent=1;resizeParentMax=0;resizeLast=0;collapsible=1;marginBottom=0;" vertex="1" parent="1">
          <mxGeometry x="285" y="-45" width="160" height="88" as="geometry">
            <mxRectangle x="210" y="10" width="90" height="30" as="alternateBounds" />
          </mxGeometry>
        </mxCell>
        <mxCell id="6VpIvGpCJ8_AKMY0z0iE-2" value="- Grupo: String&#xa;- Apellido : String&#xa;- Nombre : String&#xa;" style="text;strokeColor=none;fillColor=none;align=left;verticalAlign=top;spacingLeft=4;spacingRight=4;overflow=hidden;rotatable=0;points=[[0,0.5],[1,0.5]];portConstraint=eastwest;" vertex="1" parent="6VpIvGpCJ8_AKMY0z0iE-1">
          <mxGeometry y="26" width="160" height="54" as="geometry" />
        </mxCell>
        <mxCell id="6VpIvGpCJ8_AKMY0z0iE-3" value="" style="line;strokeWidth=1;fillColor=none;align=left;verticalAlign=middle;spacingTop=-1;spacingLeft=3;spacingRight=3;rotatable=0;labelPosition=right;points=[];portConstraint=eastwest;strokeColor=inherit;" vertex="1" parent="6VpIvGpCJ8_AKMY0z0iE-1">
          <mxGeometry y="80" width="160" height="8" as="geometry" />
        </mxCell>
        <mxCell id="6VpIvGpCJ8_AKMY0z0iE-4" value="Administrador" style="swimlane;fontStyle=1;align=center;verticalAlign=top;childLayout=stackLayout;horizontal=1;startSize=26;horizontalStack=0;resizeParent=1;resizeParentMax=0;resizeLast=0;collapsible=1;marginBottom=0;" vertex="1" parent="1">
          <mxGeometry x="-179.99999999999994" y="167" width="220" height="120" as="geometry" />
        </mxCell>
        <mxCell id="6VpIvGpCJ8_AKMY0z0iE-6" value="- altas(Usuario): void&#xa;- bajas(Usuario): void&#xa;- modificacións(Usuario): void&#xa;- asignarGrupo(Usuario): void&#xa;- notificación(Usuario): void&#xa;" style="text;strokeColor=none;fillColor=none;align=left;verticalAlign=top;spacingLeft=4;spacingRight=4;overflow=hidden;rotatable=0;points=[[0,0.5],[1,0.5]];portConstraint=eastwest;" vertex="1" parent="6VpIvGpCJ8_AKMY0z0iE-4">
          <mxGeometry y="26" width="220" height="86" as="geometry" />
        </mxCell>
        <mxCell id="6VpIvGpCJ8_AKMY0z0iE-5" value="" style="line;strokeWidth=1;fillColor=none;align=left;verticalAlign=middle;spacingTop=-1;spacingLeft=3;spacingRight=3;rotatable=0;labelPosition=right;points=[];portConstraint=eastwest;strokeColor=inherit;" vertex="1" parent="6VpIvGpCJ8_AKMY0z0iE-4">
          <mxGeometry y="112" width="220" height="8" as="geometry" />
        </mxCell>
        <mxCell id="6VpIvGpCJ8_AKMY0z0iE-7" value="Gestor" style="swimlane;fontStyle=1;align=center;verticalAlign=top;childLayout=stackLayout;horizontal=1;startSize=26;horizontalStack=0;resizeParent=1;resizeParentMax=0;resizeLast=0;collapsible=1;marginBottom=0;" vertex="1" parent="1">
          <mxGeometry x="260" y="160" width="210" height="134" as="geometry" />
        </mxCell>
        <mxCell id="6VpIvGpCJ8_AKMY0z0iE-8" value="" style="line;strokeWidth=1;fillColor=none;align=left;verticalAlign=middle;spacingTop=-1;spacingLeft=3;spacingRight=3;rotatable=0;labelPosition=right;points=[];portConstraint=eastwest;strokeColor=inherit;" vertex="1" parent="6VpIvGpCJ8_AKMY0z0iE-7">
          <mxGeometry y="26" width="210" height="8" as="geometry" />
        </mxCell>
        <mxCell id="6VpIvGpCJ8_AKMY0z0iE-9" value="- alta(Documento): void&#xa;- baja(Documento): void&#xa;- modificación(Documento): void&#xa;- consulta(Documento): void&#xa;- copiasSeguridad(Documento): void&#xa;- restauración(Documento): void&#xa;&#xa;" style="text;strokeColor=none;fillColor=none;align=left;verticalAlign=top;spacingLeft=4;spacingRight=4;overflow=hidden;rotatable=0;points=[[0,0.5],[1,0.5]];portConstraint=eastwest;" vertex="1" parent="6VpIvGpCJ8_AKMY0z0iE-7">
          <mxGeometry y="34" width="210" height="100" as="geometry" />
        </mxCell>
        <mxCell id="6VpIvGpCJ8_AKMY0z0iE-10" value="Socio" style="swimlane;fontStyle=1;align=center;verticalAlign=top;childLayout=stackLayout;horizontal=1;startSize=26;horizontalStack=0;resizeParent=1;resizeParentMax=0;resizeLast=0;collapsible=1;marginBottom=0;" vertex="1" parent="1">
          <mxGeometry x="-67.29" y="-61" width="280" height="120" as="geometry" />
        </mxCell>
        <mxCell id="6VpIvGpCJ8_AKMY0z0iE-11" value="" style="line;strokeWidth=1;fillColor=none;align=left;verticalAlign=middle;spacingTop=-1;spacingLeft=3;spacingRight=3;rotatable=0;labelPosition=right;points=[];portConstraint=eastwest;strokeColor=inherit;" vertex="1" parent="6VpIvGpCJ8_AKMY0z0iE-10">
          <mxGeometry y="26" width="280" height="8" as="geometry" />
        </mxCell>
        <mxCell id="6VpIvGpCJ8_AKMY0z0iE-12" value="- editarPerfil(): boolean&#xa;- consultarDocumentos(): Document&#xa;- realizarReserva(Socio, Documento): Reserva&#xa;- añadirComentarios(Documento): void&#xa;- consultarReservas(Documento): Reserva&#xa;&#xa;" style="text;strokeColor=none;fillColor=none;align=left;verticalAlign=top;spacingLeft=4;spacingRight=4;overflow=hidden;rotatable=0;points=[[0,0.5],[1,0.5]];portConstraint=eastwest;" vertex="1" parent="6VpIvGpCJ8_AKMY0z0iE-10">
          <mxGeometry y="34" width="280" height="86" as="geometry" />
        </mxCell>
        <mxCell id="6VpIvGpCJ8_AKMY0z0iE-13" value="Documento" style="swimlane;fontStyle=1;align=center;verticalAlign=top;childLayout=stackLayout;horizontal=1;startSize=26;horizontalStack=0;resizeParent=1;resizeParentMax=0;resizeLast=0;collapsible=1;marginBottom=0;" vertex="1" parent="1">
          <mxGeometry x="560" y="-121" width="220" height="240" as="geometry">
            <mxRectangle x="735" y="-50" width="110" height="30" as="alternateBounds" />
          </mxGeometry>
        </mxCell>
        <mxCell id="6VpIvGpCJ8_AKMY0z0iE-14" value="- isbn: String" style="text;strokeColor=none;fillColor=none;align=left;verticalAlign=top;spacingLeft=4;spacingRight=4;overflow=hidden;rotatable=0;points=[[0,0.5],[1,0.5]];portConstraint=eastwest;" vertex="1" parent="6VpIvGpCJ8_AKMY0z0iE-13">
          <mxGeometry y="26" width="220" height="24" as="geometry" />
        </mxCell>
        <mxCell id="6VpIvGpCJ8_AKMY0z0iE-15" value="- tipo_documento: String" style="text;strokeColor=none;fillColor=none;align=left;verticalAlign=top;spacingLeft=4;spacingRight=4;overflow=hidden;rotatable=0;points=[[0,0.5],[1,0.5]];portConstraint=eastwest;" vertex="1" parent="6VpIvGpCJ8_AKMY0z0iE-13">
          <mxGeometry y="50" width="220" height="24" as="geometry" />
        </mxCell>
        <mxCell id="6VpIvGpCJ8_AKMY0z0iE-16" value="- nombre_documento: String" style="text;strokeColor=none;fillColor=none;align=left;verticalAlign=top;spacingLeft=4;spacingRight=4;overflow=hidden;rotatable=0;points=[[0,0.5],[1,0.5]];portConstraint=eastwest;" vertex="1" parent="6VpIvGpCJ8_AKMY0z0iE-13">
          <mxGeometry y="74" width="220" height="24" as="geometry" />
        </mxCell>
        <mxCell id="6VpIvGpCJ8_AKMY0z0iE-17" value="- descripcion: String" style="text;strokeColor=none;fillColor=none;align=left;verticalAlign=top;spacingLeft=4;spacingRight=4;overflow=hidden;rotatable=0;points=[[0,0.5],[1,0.5]];portConstraint=eastwest;" vertex="1" parent="6VpIvGpCJ8_AKMY0z0iE-13">
          <mxGeometry y="98" width="220" height="24" as="geometry" />
        </mxCell>
        <mxCell id="6VpIvGpCJ8_AKMY0z0iE-18" value="- editorial_productora: String" style="text;strokeColor=none;fillColor=none;align=left;verticalAlign=top;spacingLeft=4;spacingRight=4;overflow=hidden;rotatable=0;points=[[0,0.5],[1,0.5]];portConstraint=eastwest;" vertex="1" parent="6VpIvGpCJ8_AKMY0z0iE-13">
          <mxGeometry y="122" width="220" height="24" as="geometry" />
        </mxCell>
        <mxCell id="6VpIvGpCJ8_AKMY0z0iE-19" value="- npaginas_duracion: String" style="text;strokeColor=none;fillColor=none;align=left;verticalAlign=top;spacingLeft=4;spacingRight=4;overflow=hidden;rotatable=0;points=[[0,0.5],[1,0.5]];portConstraint=eastwest;" vertex="1" parent="6VpIvGpCJ8_AKMY0z0iE-13">
          <mxGeometry y="146" width="220" height="24" as="geometry" />
        </mxCell>
        <mxCell id="6VpIvGpCJ8_AKMY0z0iE-20" value="- formato: String" style="text;strokeColor=none;fillColor=none;align=left;verticalAlign=top;spacingLeft=4;spacingRight=4;overflow=hidden;rotatable=0;points=[[0,0.5],[1,0.5]];portConstraint=eastwest;" vertex="1" parent="6VpIvGpCJ8_AKMY0z0iE-13">
          <mxGeometry y="170" width="220" height="24" as="geometry" />
        </mxCell>
        <mxCell id="6VpIvGpCJ8_AKMY0z0iE-21" value="" style="line;strokeWidth=1;fillColor=none;align=left;verticalAlign=middle;spacingTop=-1;spacingLeft=3;spacingRight=3;rotatable=0;labelPosition=right;points=[];portConstraint=eastwest;strokeColor=inherit;" vertex="1" parent="6VpIvGpCJ8_AKMY0z0iE-13">
          <mxGeometry y="194" width="220" height="8" as="geometry" />
        </mxCell>
        <mxCell id="6VpIvGpCJ8_AKMY0z0iE-22" value="- getAutores():Autores&#xa;- getcategoria():Catgoria&#xa;" style="text;strokeColor=none;fillColor=none;align=left;verticalAlign=top;spacingLeft=4;spacingRight=4;overflow=hidden;rotatable=0;points=[[0,0.5],[1,0.5]];portConstraint=eastwest;" vertex="1" parent="6VpIvGpCJ8_AKMY0z0iE-13">
          <mxGeometry y="202" width="220" height="38" as="geometry" />
        </mxCell>
        <mxCell id="6VpIvGpCJ8_AKMY0z0iE-23" value="Biblioteca" style="swimlane;fontStyle=1;align=center;verticalAlign=top;childLayout=stackLayout;horizontal=1;startSize=26;horizontalStack=0;resizeParent=1;resizeParentMax=0;resizeLast=0;collapsible=1;marginBottom=0;" vertex="1" parent="1">
          <mxGeometry x="260" y="-240" width="210" height="78" as="geometry">
            <mxRectangle x="20" y="10" width="100" height="30" as="alternateBounds" />
          </mxGeometry>
        </mxCell>
        <mxCell id="6VpIvGpCJ8_AKMY0z0iE-24" value="- nombre: String&#xa;- documentos: Array (Documento)" style="text;strokeColor=none;fillColor=none;align=left;verticalAlign=top;spacingLeft=4;spacingRight=4;overflow=hidden;rotatable=0;points=[[0,0.5],[1,0.5]];portConstraint=eastwest;" vertex="1" parent="6VpIvGpCJ8_AKMY0z0iE-23">
          <mxGeometry y="26" width="210" height="44" as="geometry" />
        </mxCell>
        <mxCell id="6VpIvGpCJ8_AKMY0z0iE-25" value="" style="line;strokeWidth=1;fillColor=none;align=left;verticalAlign=middle;spacingTop=-1;spacingLeft=3;spacingRight=3;rotatable=0;labelPosition=right;points=[];portConstraint=eastwest;strokeColor=inherit;" vertex="1" parent="6VpIvGpCJ8_AKMY0z0iE-23">
          <mxGeometry y="70" width="210" height="8" as="geometry" />
        </mxCell>
        <mxCell id="6VpIvGpCJ8_AKMY0z0iE-26" value="Reserva" style="swimlane;fontStyle=1;align=center;verticalAlign=top;childLayout=stackLayout;horizontal=1;startSize=26;horizontalStack=0;resizeParent=1;resizeParentMax=0;resizeLast=0;collapsible=1;marginBottom=0;" vertex="1" parent="1">
          <mxGeometry x="-12.289999999999992" y="-240" width="170" height="70" as="geometry" />
        </mxCell>
        <mxCell id="6VpIvGpCJ8_AKMY0z0iE-27" value="- fechaReserva: String&#xa;- diasPendientes: INT&#xa;" style="text;strokeColor=none;fillColor=none;align=left;verticalAlign=top;spacingLeft=4;spacingRight=4;overflow=hidden;rotatable=0;points=[[0,0.5],[1,0.5]];portConstraint=eastwest;" vertex="1" parent="6VpIvGpCJ8_AKMY0z0iE-26">
          <mxGeometry y="26" width="170" height="44" as="geometry" />
        </mxCell>
        <mxCell id="6VpIvGpCJ8_AKMY0z0iE-29" value="" style="endArrow=diamondThin;endFill=1;endSize=24;html=1;rounded=0;" edge="1" parent="1" source="6VpIvGpCJ8_AKMY0z0iE-1" target="6VpIvGpCJ8_AKMY0z0iE-23">
          <mxGeometry width="160" relative="1" as="geometry">
            <mxPoint x="194.99999999999997" y="40" as="sourcePoint" />
            <mxPoint x="104.99999999999997" y="40" as="targetPoint" />
          </mxGeometry>
        </mxCell>
        <mxCell id="6VpIvGpCJ8_AKMY0z0iE-34" value="" style="endArrow=block;dashed=1;endFill=0;endSize=12;html=1;rounded=0;" edge="1" parent="1" source="6VpIvGpCJ8_AKMY0z0iE-10" target="6VpIvGpCJ8_AKMY0z0iE-1">
          <mxGeometry width="160" relative="1" as="geometry">
            <mxPoint x="77.71" y="317" as="sourcePoint" />
            <mxPoint x="257.71" y="62.13793103448279" as="targetPoint" />
          </mxGeometry>
        </mxCell>
        <mxCell id="6VpIvGpCJ8_AKMY0z0iE-35" value="Autores" style="swimlane;fontStyle=1;align=center;verticalAlign=top;childLayout=stackLayout;horizontal=1;startSize=26;horizontalStack=0;resizeParent=1;resizeParentMax=0;resizeLast=0;collapsible=1;marginBottom=0;" vertex="1" parent="1">
          <mxGeometry x="565" y="-234" width="210" height="58" as="geometry" />
        </mxCell>
        <mxCell id="6VpIvGpCJ8_AKMY0z0iE-36" value="- nombreAutor: String&#xa;&#xa;" style="text;strokeColor=none;fillColor=none;align=left;verticalAlign=top;spacingLeft=4;spacingRight=4;overflow=hidden;rotatable=0;points=[[0,0.5],[1,0.5]];portConstraint=eastwest;" vertex="1" parent="6VpIvGpCJ8_AKMY0z0iE-35">
          <mxGeometry y="26" width="210" height="24" as="geometry" />
        </mxCell>
        <mxCell id="6VpIvGpCJ8_AKMY0z0iE-37" value="" style="line;strokeWidth=1;fillColor=none;align=left;verticalAlign=middle;spacingTop=-1;spacingLeft=3;spacingRight=3;rotatable=0;labelPosition=right;points=[];portConstraint=eastwest;strokeColor=inherit;" vertex="1" parent="6VpIvGpCJ8_AKMY0z0iE-35">
          <mxGeometry y="50" width="210" height="8" as="geometry" />
        </mxCell>
        <mxCell id="6VpIvGpCJ8_AKMY0z0iE-38" value="" style="endArrow=diamondThin;endFill=0;endSize=24;html=1;rounded=0;entryX=1;entryY=1;entryDx=0;entryDy=0;exitX=0;exitY=0;exitDx=0;exitDy=0;" edge="1" parent="1" source="6VpIvGpCJ8_AKMY0z0iE-13" target="6VpIvGpCJ8_AKMY0z0iE-23">
          <mxGeometry width="160" relative="1" as="geometry">
            <mxPoint x="425" y="200" as="sourcePoint" />
            <mxPoint x="585" y="200" as="targetPoint" />
          </mxGeometry>
        </mxCell>
        <mxCell id="6VpIvGpCJ8_AKMY0z0iE-39" value="" style="endArrow=block;dashed=1;endFill=0;endSize=12;html=1;rounded=0;" edge="1" parent="1" source="6VpIvGpCJ8_AKMY0z0iE-7" target="6VpIvGpCJ8_AKMY0z0iE-1">
          <mxGeometry width="160" relative="1" as="geometry">
            <mxPoint x="264.6928925619836" y="170" as="sourcePoint" />
            <mxPoint x="585" y="130" as="targetPoint" />
          </mxGeometry>
        </mxCell>
        <mxCell id="6VpIvGpCJ8_AKMY0z0iE-40" value="Prestamo" style="swimlane;fontStyle=1;align=center;verticalAlign=top;childLayout=stackLayout;horizontal=1;startSize=26;horizontalStack=0;resizeParent=1;resizeParentMax=0;resizeLast=0;collapsible=1;marginBottom=0;" vertex="1" parent="1">
          <mxGeometry x="-310" y="-45" width="160" height="88" as="geometry" />
        </mxCell>
        <mxCell id="6VpIvGpCJ8_AKMY0z0iE-41" value="- fechaPrestamo: String&#xa;- fechaDevolucion: String&#xa;- diasRetardo: INT&#xa;" style="text;strokeColor=none;fillColor=none;align=left;verticalAlign=top;spacingLeft=4;spacingRight=4;overflow=hidden;rotatable=0;points=[[0,0.5],[1,0.5]];portConstraint=eastwest;" vertex="1" parent="6VpIvGpCJ8_AKMY0z0iE-40">
          <mxGeometry y="26" width="160" height="54" as="geometry" />
        </mxCell>
        <mxCell id="6VpIvGpCJ8_AKMY0z0iE-42" value="" style="line;strokeWidth=1;fillColor=none;align=left;verticalAlign=middle;spacingTop=-1;spacingLeft=3;spacingRight=3;rotatable=0;labelPosition=right;points=[];portConstraint=eastwest;strokeColor=inherit;" vertex="1" parent="6VpIvGpCJ8_AKMY0z0iE-40">
          <mxGeometry y="80" width="160" height="8" as="geometry" />
        </mxCell>
        <mxCell id="6VpIvGpCJ8_AKMY0z0iE-49" value="Categoria" style="swimlane;fontStyle=1;align=center;verticalAlign=top;childLayout=stackLayout;horizontal=1;startSize=26;horizontalStack=0;resizeParent=1;resizeParentMax=0;resizeLast=0;collapsible=1;marginBottom=0;" vertex="1" parent="1">
          <mxGeometry x="590" y="198" width="160" height="78" as="geometry">
            <mxRectangle x="210" y="10" width="90" height="30" as="alternateBounds" />
          </mxGeometry>
        </mxCell>
        <mxCell id="6VpIvGpCJ8_AKMY0z0iE-50" value="- Nombre : String&#xa;- descripcion: Grupo" style="text;strokeColor=none;fillColor=none;align=left;verticalAlign=top;spacingLeft=4;spacingRight=4;overflow=hidden;rotatable=0;points=[[0,0.5],[1,0.5]];portConstraint=eastwest;" vertex="1" parent="6VpIvGpCJ8_AKMY0z0iE-49">
          <mxGeometry y="26" width="160" height="44" as="geometry" />
        </mxCell>
        <mxCell id="6VpIvGpCJ8_AKMY0z0iE-51" value="" style="line;strokeWidth=1;fillColor=none;align=left;verticalAlign=middle;spacingTop=-1;spacingLeft=3;spacingRight=3;rotatable=0;labelPosition=right;points=[];portConstraint=eastwest;strokeColor=inherit;" vertex="1" parent="6VpIvGpCJ8_AKMY0z0iE-49">
          <mxGeometry y="70" width="160" height="8" as="geometry" />
        </mxCell>
        <mxCell id="6VpIvGpCJ8_AKMY0z0iE-58" value="Extends" style="endArrow=block;endSize=16;endFill=0;html=1;rounded=0;" edge="1" parent="1" source="6VpIvGpCJ8_AKMY0z0iE-4" target="6VpIvGpCJ8_AKMY0z0iE-7">
          <mxGeometry width="160" relative="1" as="geometry">
            <mxPoint x="61.41999999999999" y="187.6190476190477" as="sourcePoint" />
            <mxPoint x="221.42" y="18" as="targetPoint" />
          </mxGeometry>
        </mxCell>
        <mxCell id="6VpIvGpCJ8_AKMY0z0iE-59" value="" style="endArrow=none;html=1;rounded=0;" edge="1" parent="1" source="6VpIvGpCJ8_AKMY0z0iE-1" target="6VpIvGpCJ8_AKMY0z0iE-13">
          <mxGeometry width="50" height="50" relative="1" as="geometry">
            <mxPoint x="234.99999999999997" y="80" as="sourcePoint" />
            <mxPoint x="285" y="30" as="targetPoint" />
          </mxGeometry>
        </mxCell>
        <mxCell id="6VpIvGpCJ8_AKMY0z0iE-61" value="1" style="text;html=1;strokeColor=none;fillColor=none;align=center;verticalAlign=middle;whiteSpace=wrap;rounded=0;" vertex="1" parent="1">
          <mxGeometry x="450" width="20" height="20" as="geometry" />
        </mxCell>
        <mxCell id="6VpIvGpCJ8_AKMY0z0iE-63" value="" style="endArrow=none;html=1;rounded=0;" edge="1" parent="1" source="6VpIvGpCJ8_AKMY0z0iE-13" target="6VpIvGpCJ8_AKMY0z0iE-35">
          <mxGeometry relative="1" as="geometry">
            <mxPoint x="827.29" y="-152" as="sourcePoint" />
            <mxPoint x="987.29" y="-152" as="targetPoint" />
          </mxGeometry>
        </mxCell>
        <mxCell id="6VpIvGpCJ8_AKMY0z0iE-64" value="M" style="resizable=0;html=1;whiteSpace=wrap;align=left;verticalAlign=bottom;" connectable="0" vertex="1" parent="6VpIvGpCJ8_AKMY0z0iE-63">
          <mxGeometry x="-1" relative="1" as="geometry">
            <mxPoint x="12" as="offset" />
          </mxGeometry>
        </mxCell>
        <mxCell id="6VpIvGpCJ8_AKMY0z0iE-65" value="N" style="resizable=0;html=1;whiteSpace=wrap;align=right;verticalAlign=bottom;" connectable="0" vertex="1" parent="6VpIvGpCJ8_AKMY0z0iE-63">
          <mxGeometry x="1" relative="1" as="geometry">
            <mxPoint x="-8" y="22" as="offset" />
          </mxGeometry>
        </mxCell>
        <mxCell id="6VpIvGpCJ8_AKMY0z0iE-66" value="" style="endArrow=none;html=1;rounded=0;" edge="1" parent="1" source="6VpIvGpCJ8_AKMY0z0iE-13" target="6VpIvGpCJ8_AKMY0z0iE-49">
          <mxGeometry relative="1" as="geometry">
            <mxPoint x="837.29" y="-110" as="sourcePoint" />
            <mxPoint x="997.29" y="-110" as="targetPoint" />
          </mxGeometry>
        </mxCell>
        <mxCell id="6VpIvGpCJ8_AKMY0z0iE-67" value="M" style="resizable=0;html=1;whiteSpace=wrap;align=left;verticalAlign=bottom;" connectable="0" vertex="1" parent="6VpIvGpCJ8_AKMY0z0iE-66">
          <mxGeometry x="-1" relative="1" as="geometry">
            <mxPoint x="7" y="19" as="offset" />
          </mxGeometry>
        </mxCell>
        <mxCell id="6VpIvGpCJ8_AKMY0z0iE-68" value="N" style="resizable=0;html=1;whiteSpace=wrap;align=right;verticalAlign=bottom;" connectable="0" vertex="1" parent="6VpIvGpCJ8_AKMY0z0iE-66">
          <mxGeometry x="1" relative="1" as="geometry">
            <mxPoint x="-6" y="-1" as="offset" />
          </mxGeometry>
        </mxCell>
        <mxCell id="6VpIvGpCJ8_AKMY0z0iE-72" value="" style="endArrow=none;html=1;rounded=0;" edge="1" parent="1" source="6VpIvGpCJ8_AKMY0z0iE-26" target="6VpIvGpCJ8_AKMY0z0iE-10">
          <mxGeometry relative="1" as="geometry">
            <mxPoint x="72.21000000000004" y="-117" as="sourcePoint" />
            <mxPoint x="72.71000000000004" y="-61" as="targetPoint" />
          </mxGeometry>
        </mxCell>
        <mxCell id="6VpIvGpCJ8_AKMY0z0iE-73" value="M" style="resizable=0;html=1;whiteSpace=wrap;align=left;verticalAlign=bottom;" connectable="0" vertex="1" parent="6VpIvGpCJ8_AKMY0z0iE-72">
          <mxGeometry x="-1" relative="1" as="geometry">
            <mxPoint x="7" y="20" as="offset" />
          </mxGeometry>
        </mxCell>
        <mxCell id="6VpIvGpCJ8_AKMY0z0iE-74" value="1" style="resizable=0;html=1;whiteSpace=wrap;align=right;verticalAlign=bottom;" connectable="0" vertex="1" parent="6VpIvGpCJ8_AKMY0z0iE-72">
          <mxGeometry x="1" relative="1" as="geometry">
            <mxPoint x="-13" y="-9" as="offset" />
          </mxGeometry>
        </mxCell>
        <mxCell id="6VpIvGpCJ8_AKMY0z0iE-75" value="" style="endArrow=none;html=1;rounded=0;" edge="1" parent="1" source="6VpIvGpCJ8_AKMY0z0iE-40" target="6VpIvGpCJ8_AKMY0z0iE-10">
          <mxGeometry relative="1" as="geometry">
            <mxPoint x="-169.99999999999997" y="95" as="sourcePoint" />
            <mxPoint x="-67.28999999999996" y="-1" as="targetPoint" />
          </mxGeometry>
        </mxCell>
        <mxCell id="6VpIvGpCJ8_AKMY0z0iE-76" value="M" style="resizable=0;html=1;whiteSpace=wrap;align=left;verticalAlign=bottom;" connectable="0" vertex="1" parent="6VpIvGpCJ8_AKMY0z0iE-75">
          <mxGeometry x="-1" relative="1" as="geometry">
            <mxPoint x="10" y="-8" as="offset" />
          </mxGeometry>
        </mxCell>
        <mxCell id="6VpIvGpCJ8_AKMY0z0iE-77" value="1" style="resizable=0;html=1;whiteSpace=wrap;align=right;verticalAlign=bottom;" connectable="0" vertex="1" parent="6VpIvGpCJ8_AKMY0z0iE-75">
          <mxGeometry x="1" relative="1" as="geometry">
            <mxPoint x="-13" y="31" as="offset" />
          </mxGeometry>
        </mxCell>
        <mxCell id="6VpIvGpCJ8_AKMY0z0iE-78" value="1" style="text;html=1;strokeColor=none;fillColor=none;align=center;verticalAlign=middle;whiteSpace=wrap;rounded=0;" vertex="1" parent="1">
          <mxGeometry x="332.71" y="-160" width="20" height="20" as="geometry" />
        </mxCell>
        <mxCell id="6VpIvGpCJ8_AKMY0z0iE-79" value="1" style="text;html=1;strokeColor=none;fillColor=none;align=center;verticalAlign=middle;whiteSpace=wrap;rounded=0;" vertex="1" parent="1">
          <mxGeometry x="470" y="-182" width="20" height="20" as="geometry" />
        </mxCell>
        <mxCell id="6VpIvGpCJ8_AKMY0z0iE-85" value="M" style="text;html=1;strokeColor=none;fillColor=none;align=center;verticalAlign=middle;whiteSpace=wrap;rounded=0;" vertex="1" parent="1">
          <mxGeometry x="370" y="-65" width="20" height="20" as="geometry" />
        </mxCell>
        <mxCell id="6VpIvGpCJ8_AKMY0z0iE-86" value="M" style="text;html=1;strokeColor=none;fillColor=none;align=center;verticalAlign=middle;whiteSpace=wrap;rounded=0;" vertex="1" parent="1">
          <mxGeometry x="540" y="-20" width="20" height="20" as="geometry" />
        </mxCell>
        <mxCell id="6VpIvGpCJ8_AKMY0z0iE-87" value="M" style="text;html=1;strokeColor=none;fillColor=none;align=center;verticalAlign=middle;whiteSpace=wrap;rounded=0;" vertex="1" parent="1">
          <mxGeometry x="540" y="-121" width="20" height="20" as="geometry" />
        </mxCell>
      </root>
    </mxGraphModel>
  </diagram>
</mxfile>
